<?xml version="1.0" encoding="utf-8"?>
<!-- Generator: Adobe Illustrator 19.1.0, SVG Export Plug-In . SVG Version: 6.00 Build 0)  -->
<svg version="1.1" id="Layer_2" xmlns="http://www.w3.org/2000/svg" xmlns:xlink="http://www.w3.org/1999/xlink" x="0px" y="0px"
	 viewBox="-78 110.8 82 18" style="enable-background:new -78 110.8 82 18;" xml:space="preserve">
<style type="text/css">
	.st0{fill:#12123C;}
</style>
<g>
	<path class="st0" d="M-70.4,117.1h-5.5v1.8h5.2c0.8,0,1.4,0.1,1.7,0.4s0.4,0.8,0.4,1.6v1.2c0,0.8-0.1,1.3-0.4,1.6s-0.8,0.4-1.7,0.4
		h-5.2c-0.8,0-1.4-0.1-1.7-0.4s-0.4-0.8-0.4-1.6v-0.2l1.7-0.4v1h5.9v-1.9h-5.2c-0.8,0-1.4-0.1-1.7-0.4c-0.3-0.3-0.4-0.8-0.4-1.6
		v-0.9c0-0.8,0.1-1.3,0.4-1.6c0.3-0.3,0.8-0.4,1.7-0.4h4.8c0.8,0,1.3,0.1,1.6,0.4c0.3,0.3,0.4,0.8,0.4,1.4v0.2l-1.7,0.4V117.1z"/>
	<path class="st0" d="M-63.5,117.2v5.6h4.8v-5.6h1.7v5.3c0,0.6-0.1,1.1-0.4,1.3c-0.3,0.2-0.7,0.3-1.4,0.3h-4.6
		c-0.7,0-1.2-0.1-1.4-0.3c-0.2-0.2-0.4-0.7-0.4-1.3v-5.3H-63.5z"/>
	<path class="st0" d="M-53.9,124.1v-6.9h1.2l5.8,4.6v-4.6h1.5v6.9h-1.2l-5.8-4.6v4.6H-53.9z"/>
	<path class="st0" d="M-41.7,124.1v-8.4h7.2c0.7,0,1.2,0.1,1.5,0.4c0.3,0.3,0.4,0.7,0.4,1.2v1.9c0,0.6-0.1,1-0.4,1.2
		c-0.3,0.3-0.8,0.4-1.5,0.4h-5.3v3.3H-41.7z M-35.4,117.1h-4.4v2.2h4.4c0.3,0,0.6,0,0.7-0.1s0.2-0.3,0.2-0.5v-0.9
		c0-0.2-0.1-0.4-0.2-0.5S-35,117.1-35.4,117.1z"/>
	<path class="st0" d="M-30.2,124.1v-6.9h6.2c0.6,0,1,0.1,1.2,0.3c0.3,0.2,0.4,0.6,0.4,1v1.6c0,0.5-0.1,0.8-0.4,1s-0.7,0.3-1.2,0.3
		h-0.9l3.3,2.6h-2.4l-2.9-2.6h-1.6v2.6H-30.2z M-24.7,118.4h-3.8v1.9h3.8c0.3,0,0.5,0,0.6-0.1c0.1-0.1,0.2-0.2,0.2-0.4v-0.8
		c0-0.2-0.1-0.3-0.2-0.4C-24.2,118.4-24.4,118.4-24.7,118.4z"/>
	<path class="st0" d="M-19.6,124.1v-6.9h1.7v6.9H-19.6z"/>
	<path class="st0" d="M-14.9,124.1v-6.9h1.2l5.8,4.6v-4.6h1.5v6.9h-1.2l-5.8-4.6v4.6H-14.9z"/>
	<path class="st0" d="M0.8,118.4v5.7h-1.7v-5.7h-3.3v-1.2h8.3v1.2H0.8z"/>
</g>
</svg>
